<svg width="155" height="169" viewBox="0 0 155 169" fill="none" xmlns="http://www.w3.org/2000/svg">
<g filter="url(#filter0_dd)">
<path d="M56.1405 132.305C64.7029 134.513 73.679 134.565 82.2661 132.455C90.8532 130.345 98.7834 126.139 105.347 120.214C111.911 114.289 116.904 106.83 119.88 98.5032C122.856 90.1763 123.721 81.2418 122.398 72.4988" stroke="#F2426A" stroke-width="3" stroke-linecap="round" stroke-linejoin="round"/>
<path d="M123 80.5C123 70.2222 120.04 60.1619 114.473 51.5222C108.906 42.8826 100.968 36.0293 91.6089 31.782C82.2497 27.5347 71.8652 26.0731 61.6972 27.5721C51.5293 29.0711 42.0083 33.4671 34.273 40.2346C26.5376 47.002 20.9153 55.8543 18.0784 65.7329C15.2415 75.6115 15.3101 86.0981 18.276 95.9387C21.2419 105.779 26.9796 114.557 34.8028 121.223C42.6261 127.889 52.2037 132.16 62.3904 133.526" stroke="#F5873C" stroke-width="3" stroke-linecap="round" stroke-linejoin="round"/>
<path d="M123 80.5C123 71.843 120.899 63.3152 116.878 55.6488C112.857 47.9824 107.035 41.4063 99.9128 36.4851C92.7906 31.5639 84.5805 28.4445 75.9874 27.3948C67.3942 26.345 58.6746 27.3963 50.5772 30.4583C42.4797 33.5202 35.2463 38.5015 29.4977 44.9744C23.7492 51.4473 19.6573 59.2186 17.5733 67.621C15.4893 76.0235 15.4755 84.8062 17.5329 93.2152C19.5904 101.624 23.6578 109.408 29.3859 115.899" stroke="#4CCFD3" stroke-width="3" stroke-linecap="round" stroke-linejoin="round"/>
</g>
<defs>
<filter id="filter0_dd" x="-14.5" y="0.5" width="169" height="168" filterUnits="userSpaceOnUse" color-interpolation-filters="sRGB">
<feFlood flood-opacity="0" result="BackgroundImageFix"/>
<feColorMatrix in="SourceAlpha" type="matrix" values="0 0 0 0 0 0 0 0 0 0 0 0 0 0 0 0 0 0 127 0"/>
<feOffset dx="2" dy="4"/>
<feGaussianBlur stdDeviation="14"/>
<feColorMatrix type="matrix" values="0 0 0 0 0.243137 0 0 0 0 0.152941 0 0 0 0 0.580392 0 0 0 0.6 0"/>
<feBlend mode="normal" in2="BackgroundImageFix" result="effect1_dropShadow"/>
<feColorMatrix in="SourceAlpha" type="matrix" values="0 0 0 0 0 0 0 0 0 0 0 0 0 0 0 0 0 0 127 0"/>
<feOffset dy="4"/>
<feGaussianBlur stdDeviation="14.5"/>
<feColorMatrix type="matrix" values="0 0 0 0 1 0 0 0 0 1 0 0 0 0 1 0 0 0 1 0"/>
<feBlend mode="normal" in2="effect1_dropShadow" result="effect2_dropShadow"/>
<feBlend mode="normal" in="SourceGraphic" in2="effect2_dropShadow" result="shape"/>
</filter>
</defs>
</svg>
