<svg width="42" height="42" viewBox="0 0 42 42" fill="none" xmlns="http://www.w3.org/2000/svg">
<path fill-rule="evenodd" clip-rule="evenodd" d="M21 38.5C22.925 38.5 24.5 36.925 24.5 35H17.5C17.5 36.925 19.0575 38.5 21 38.5ZM31.5 28V19.25C31.5 13.8775 28.63 9.38 23.625 8.19V7C23.625 5.5475 22.4525 4.375 21 4.375C19.5475 4.375 18.375 5.5475 18.375 7V8.19C13.3525 9.38 10.5 13.86 10.5 19.25V28L8.24253 30.2575C7.14003 31.36 7.91003 33.25 9.46753 33.25H32.515C34.0725 33.25 34.86 31.36 33.7575 30.2575L31.5 28Z" fill="#3E2794"/>
</svg>
