<svg 
          width="16" 
          height="16" fill="none" 
          xmlns="http://www.w3.org/2000/svg">
          <path d="M 15.80210866356907 6.784047525799938 L 14.013694157867839 6.250716905126419 C 13.890043861016833 5.819419444176004 13.719998813105102 5.402769774018484 13.506532504055489 5.008056599647015 L 14.382054403698275 3.3707309940033268 C 14.414906329968236 3.308927689284316 14.426935822993876 3.2381897493883804 14.416357129992674 3.1690154062123304 C 14.405778436991472 3.0998410630362803 14.3731550983659 3.0359178186463995 14.32333002614987 2.986733313327467 L 13.047416864853718 1.7067395185367913 C 12.998183999097577 1.6569633884702633 12.93419841159733 1.6243726037067863 12.86495605306852 1.6138043019393824 C 12.795713694539709 1.6032360001719785 12.724905692767958 1.6152536768726256 12.663041620235633 1.6480733333672417 L 11.034783211896695 2.517402051788067 C 10.635788381412652 2.2937552769710443 10.213253320282792 2.114890563249902 9.774886067635826 1.9840714311145473 L 9.241031052098004 0.2187472820420225 C 9.218449766105337 0.15368955245563531 9.175787523061718 0.09746726450086213 9.119186521965192 0.05817300295256067 C 9.062585520868666 0.01887874140425922 8.994964900685853 -0.0014609221878929912 8.926056511470877 0.00008168958177103732 L 7.121625479610545 0.00008168958177103732 C 7.0523003645962925 0.0004041272460108006 6.984887327717273 0.022819995047276567 6.929197041736061 0.0640670617189447 C 6.873506755754849 0.10531412839061284 6.832445673306702 0.16323979716722023 6.811989611328514 0.2294138842830186 L 6.278134595790691 1.9894048593909741 C 5.836110497687623 2.119525905477369 5.409961293861812 2.298404510983729 5.007560106839633 2.5227354800644934 L 3.4059950602261653 1.6587399356082377 C 3.3441309876938408 1.6259202791136216 3.2733229859220896 1.6139026024129746 3.2040806273932794 1.6244709041803784 C 3.134838268864469 1.6350392059477823 3.0708521722404054 1.6676299907112595 3.0216193064842645 1.7174061207777875 L 1.7243515830886886 2.9813998850510406 C 1.6745265108726572 3.030584390369973 1.641903681370905 3.0945076347598532 1.6313249883697027 3.1636819779359033 C 1.6207462953685006 3.2328563211119534 1.6327757883941407 3.303594769631604 1.6656277146641023 3.365398074350615 L 2.5304726514595623 4.965390190683031 C 2.3062839243518374 5.365704297616081 2.1272374798498337 5.789627795523094 1.996617763202694 6.229383700644426 L 0.22955769231993084 6.762714321317946 C 0.16331853983925687 6.783150289724785 0.10533590796186917 6.824171038711351 0.06404828530280457 6.879806621263524 C 0.022760662643739972 6.935442203815696 0.0003227546995807524 7.002789022247201 0 7.07204604061869 L 0 8.874702582282602 C 0.0003227546995807524 8.94395960065409 0.022760662643739972 9.011306419085596 0.06404828530280457 9.066942001637768 C 0.10533590796186917 9.12257758418994 0.16331853983925687 9.163598333176507 0.22955769231993084 9.184034301583345 L 2.0072948533309742 9.717364922256866 C 2.1393417554080085 10.149798871109665 2.318359004841131 10.566498990381927 2.541149996149751 10.960025227736269 L 1.6656277146641023 12.634684068379373 C 1.6327757883941407 12.696487373098384 1.6207462953685006 12.767225821618034 1.6313249883697027 12.836400164794084 C 1.641903681370905 12.905574507970133 1.6745265108726572 12.969497243736301 1.7243515830886886 13.018681749055233 L 3.000265126227704 14.293341606945766 C 3.049497991983845 14.343117737012294 3.113484088607909 14.375709030399488 3.1827264471367194 14.386277332166891 C 3.2519688056655296 14.396845633934294 3.3227768074372803 14.384827957233648 3.384640879969605 14.352008300739032 L 5.03425245031747 13.47201298007721 C 5.42448217334775 13.682373120635374 5.836111611395973 13.85043926810319 6.262119087879225 13.973344048339598 L 6.7959741034170476 15.770667670350798 C 6.816430165395236 15.836841757466598 6.857491247843383 15.894768069970095 6.913181533824595 15.936015136641762 C 6.968871819805807 15.97726220331343 7.036285365808644 15.99967756233576 7.105610480822897 16 L 8.910040494435593 16 C 8.979365609449845 15.99967756233576 9.046778646328866 15.97726220331343 9.102468932310078 15.936015136641762 C 9.15815921829129 15.894768069970095 9.199220300739439 15.836841757466598 9.219676362717626 15.770667670350798 L 9.753531378255449 13.968010620063172 C 10.175900114998342 13.844469893290745 10.58392371543288 13.676414736863522 10.970721180250832 13.466679551800784 L 12.631009586165069 14.352008300739032 C 12.692873658697394 14.384827957233648 12.763681660469143 14.396845633934294 12.832924018997954 14.386277332166891 C 12.902166377526765 14.375709030399488 12.966152983274645 14.343117737012294 13.015385849030785 14.293341606945766 L 14.29129901032694 13.018681749055233 C 14.34112408254297 12.969497243736301 14.37374742116854 12.905574507970133 14.384326114169742 12.836400164794084 C 14.394904807170944 12.767225821618034 14.382875314145304 12.696487373098384 14.350023387875343 12.634684068379373 L 13.463824143542368 10.981358940841977 C 13.675954957179504 10.593465647554284 13.845974230698001 10.184030296171589 13.970985797354718 9.76003133122085 L 15.770076629498504 9.22670071054733 C 15.836315781979179 9.206264742140492 15.894299050261338 9.165243993153926 15.935586672920403 9.109608410601753 C 15.976874295579467 9.05397282804958 15.999311694399811 8.986626009618075 15.999634449099391 8.917368991246587 L 15.999634449099391 7.098712164753394 C 16.00278353428543 7.032393258955592 15.985548067015968 6.9666996464111515 15.950239256373752 6.9104517087213715 C 15.914930445731537 6.8542037710315915 15.86323936710818 6.810094974750012 15.80210866356907 6.784047525799938 L 15.80210866356907 6.784047525799938 Z M 8.023840740978802 10.933359103601566 C 7.443114704959564 10.933359103601566 6.8754299391533396 10.761322504310586 6.3925739200051925 10.439005335462772 C 5.9097179008570455 10.116688166614958 5.533377727869501 9.658567067123073 5.311143511185132 9.12257322909938 C 5.088909294500763 8.586579391075688 5.030762684979002 7.996787532615496 5.1440567113019755 7.427779501447035 C 5.257350737624949 6.858771470278574 5.536996468589924 6.336103605379204 5.947631778744971 5.925871653891734 C 6.358267088900019 5.515639702404265 6.881448864558427 5.236268661721996 7.45101637023993 5.12308592180419 C 8.020583875921433 5.009903181886384 8.610956662744291 5.067992675182723 9.147477514228418 5.290008595740785 C 9.683998365712545 5.512024516298847 10.142569910655133 5.887995018030711 10.4652039963674 6.370376737585767 C 10.787838082079666 6.852758457140823 10.960043835560644 7.419885597810883 10.960043835560644 8.000041198520922 C 10.960043835560644 8.77800558468839 10.650694985830446 9.52410634813259 10.10005021233645 10.074210234526396 C 9.549405438842454 10.624314120920202 8.80257005702823 10.933359103601566 8.023840740978802 10.933359103601566 L 8.023840740978802 10.933359103601566 Z" fill="rgb(255,255,255)"/>
        </svg>