<svg width="317" height="204" viewBox="0 0 317 204" fill="none" xmlns="http://www.w3.org/2000/svg">
<path d="M23.1325 -2.19608C9.23973 19.3072 -12.4037 65.1961 12.1645 76.7255C42.8748 91.1373 79.4347 73.9804 110.145 110.353C140.855 146.725 129.156 160.513 152.554 173.49C184.727 191.333 188.383 181.039 268.815 169.373C333.16 160.039 363.87 187.902 371.182 203M71.3915 -7C54.8177 12.6732 30.0057 54.902 63.3483 66.4314C105.027 80.8431 122.575 65.7451 152.554 95.9412C182.534 126.137 159.866 164.569 268.815 133C377.763 101.431 379.226 122.02 388 133M110.145 -7C95.0336 5.12418 69.9291 33.0784 90.4026 47.902C115.995 66.4314 140.124 57.5098 162.06 76.7255C183.996 95.9412 177.415 124.765 242.492 110.353C294.553 98.8235 329.992 105.549 341.203 110.353H345.591M117.457 -2.19608C110.632 0.777778 98.2996 10.8431 103.564 27.3137C110.145 47.902 155.346 35.4981 172.297 52.0196C191.308 70.549 184.727 76.7255 202.276 83.5882C219.825 90.451 249.804 93.1961 273.933 84.9608C298.063 76.7255 287.095 76.7255 321.461 76.7255M132.812 -2.19608C127.206 2.37909 116.726 13.5882 119.651 21.8235C123.307 32.1176 134.274 34.1765 152.554 36.2353C170.834 38.2941 183.996 34.1765 196.426 47.902C208.857 61.6275 204.469 73.9804 256.384 66.4314C308.299 58.8824 314.149 58.1961 333.16 60.9412M142.318 1.23529C133.543 10.6144 125.208 28.9608 162.06 27.3137C208.125 25.2549 208.125 36.9216 219.093 47.902C227.868 56.6863 281.245 51.5621 306.837 47.902C332.575 38.5686 354.609 44.0131 362.408 47.902" stroke="white" stroke-opacity="0.1" stroke-width="2"/>
</svg>
