<svg width="17" height="16" viewBox="0 0 17 16" fill="none" xmlns="http://www.w3.org/2000/svg">
<path d="M16.1947 3.59283C15.8838 3.89501 15.5821 4.18831 15.5729 4.4816C15.5455 4.766 15.8564 5.0593 16.149 5.33481C16.5879 5.7792 17.0177 6.17914 16.9994 6.61464C16.9811 7.05013 16.5148 7.5034 16.0484 7.94778L12.2718 11.6273L10.9733 10.3652L14.8596 6.59686L13.9818 5.74365L12.6833 6.99681L9.25413 3.66394L12.7656 0.259964C13.1222 -0.0866546 13.7166 -0.0866546 14.0549 0.259964L16.1947 2.33967C16.5514 2.66852 16.5514 3.24622 16.1947 3.59283ZM0 12.6671L8.74205 4.16164L12.1712 7.49451L3.42915 16H0V12.6671Z" fill="white"/>
</svg>
